<svg width="25" height="25" viewBox="0 0 25 25" fill="none" xmlns="http://www.w3.org/2000/svg">
<path d="M10.0508 4.25H22.4258V5.75H10.0508V4.25ZM2.17578 5C2.17578 5.59334 2.35173 6.17336 2.68137 6.66671C3.01102 7.16006 3.47955 7.54458 4.02773 7.77164C4.57591 7.9987 5.17911 8.05811 5.76105 7.94236C6.343 7.8266 6.87754 7.54088 7.2971 7.12132C7.71666 6.70176 8.00238 6.16721 8.11814 5.58527C8.23389 5.00333 8.17448 4.40013 7.94742 3.85195C7.72036 3.30377 7.33584 2.83524 6.84249 2.50559C6.34914 2.17595 5.76913 2 5.17578 2C4.38041 2.00089 3.61786 2.31725 3.05545 2.87967C2.49303 3.44208 2.17667 4.20462 2.17578 5ZM5.17578 3.5C5.47245 3.5 5.76246 3.58797 6.00914 3.7528C6.25581 3.91762 6.44807 4.15189 6.5616 4.42597C6.67513 4.70006 6.70484 5.00166 6.64696 5.29264C6.58908 5.58361 6.44622 5.85088 6.23644 6.06066C6.02666 6.27044 5.75939 6.4133 5.46842 6.47118C5.17745 6.52906 4.87585 6.49935 4.60176 6.38582C4.32767 6.27229 4.0934 6.08003 3.92858 5.83336C3.76375 5.58668 3.67578 5.29667 3.67578 5C3.67623 4.60231 3.83441 4.22104 4.11561 3.93983C4.39682 3.65863 4.77809 3.50045 5.17578 3.5ZM10.0508 11.75H22.4258V13.25H10.0508V11.75ZM5.17578 15.5C5.76913 15.5 6.34914 15.3241 6.84249 14.9944C7.33584 14.6648 7.72036 14.1962 7.94742 13.648C8.17448 13.0999 8.23389 12.4967 8.11814 11.9147C8.00238 11.3328 7.71666 10.7982 7.2971 10.3787C6.87754 9.95912 6.343 9.6734 5.76105 9.55764C5.17911 9.44189 4.57591 9.5013 4.02773 9.72836C3.47955 9.95542 3.01102 10.3399 2.68137 10.8333C2.35173 11.3266 2.17578 11.9067 2.17578 12.5C2.17667 13.2954 2.49303 14.0579 3.05545 14.6203C3.61786 15.1827 4.38041 15.4991 5.17578 15.5ZM5.17578 11C5.47245 11 5.76246 11.088 6.00914 11.2528C6.25581 11.4176 6.44807 11.6519 6.5616 11.926C6.67513 12.2001 6.70484 12.5017 6.64696 12.7926C6.58908 13.0836 6.44622 13.3509 6.23644 13.5607C6.02666 13.7704 5.75939 13.9133 5.46842 13.9712C5.17745 14.0291 4.87585 13.9994 4.60176 13.8858C4.32767 13.7723 4.0934 13.58 3.92858 13.3334C3.76375 13.0867 3.67578 12.7967 3.67578 12.5C3.67623 12.1023 3.83441 11.721 4.11561 11.4398C4.39682 11.1586 4.77809 11.0004 5.17578 11ZM10.0508 19.25H22.4258V20.75H10.0508V19.25ZM5.17578 23C5.76913 23 6.34914 22.8241 6.84249 22.4944C7.33584 22.1648 7.72036 21.6962 7.94742 21.148C8.17448 20.5999 8.23389 19.9967 8.11814 19.4147C8.00238 18.8328 7.71666 18.2982 7.2971 17.8787C6.87754 17.4591 6.343 17.1734 5.76105 17.0576C5.17911 16.9419 4.57591 17.0013 4.02773 17.2284C3.47955 17.4554 3.01102 17.8399 2.68137 18.3333C2.35173 18.8266 2.17578 19.4067 2.17578 20C2.17667 20.7954 2.49303 21.5579 3.05545 22.1203C3.61786 22.6827 4.38041 22.9991 5.17578 23ZM5.17578 18.5C5.47245 18.5 5.76246 18.588 6.00914 18.7528C6.25581 18.9176 6.44807 19.1519 6.5616 19.426C6.67513 19.7001 6.70484 20.0017 6.64696 20.2926C6.58908 20.5836 6.44622 20.8509 6.23644 21.0607C6.02666 21.2704 5.75939 21.4133 5.46842 21.4712C5.17745 21.5291 4.87585 21.4994 4.60176 21.3858C4.32767 21.2723 4.0934 21.08 3.92858 20.8334C3.76375 20.5867 3.67578 20.2967 3.67578 20C3.67623 19.6023 3.83441 19.221 4.11561 18.9398C4.39682 18.6586 4.77809 18.5004 5.17578 18.5Z" fill="black"/>
</svg>
